<svg width="32" height="31" viewBox="0 0 32 31" fill="none" xmlns="http://www.w3.org/2000/svg">
<path d="M11.4558 27.2609C15.5751 27.2609 18.9264 23.9955 18.9264 19.9818H17.0588C17.0588 22.9921 14.5453 25.4411 11.4558 25.4411V27.2609Z" fill="white"/>
<path d="M21.7279 5.42372C21.4453 -1.81064 10.8019 -1.80518 10.522 5.42372H7.72051V9.68779C-3.97716 13.9059 -1.17499 30.6682 11.456 30.9004C24.0888 30.6671 26.8871 13.9038 15.1911 9.68779V5.42372H12.3896C12.5781 0.60122 19.6733 0.60395 19.8603 5.42384C19.8603 7.43061 21.5359 9.06325 23.5956 9.06325H26.397V7.24348H23.5956C22.5657 7.24348 21.7279 6.42714 21.7279 5.42372ZM20.7941 19.9818C20.7941 24.9989 16.6049 29.0807 11.4558 29.0807C-0.915638 28.6232 -0.912277 11.3386 11.4559 10.883C16.6049 10.883 20.7941 14.9647 20.7941 19.9818ZM13.3235 7.24348V9.21574C12.0855 9.01254 10.8273 9.01229 9.58817 9.21574V7.24348H13.3235Z" fill="white"/>
<path d="M28.2647 7.24348H32V9.06325H28.2647V7.24348Z" fill="white"/>
<path d="M26.8123 3.74879L29.6136 1.92805L30.6502 3.44205L27.8489 5.26278L26.8123 3.74879Z" fill="white"/>
<path d="M26.8205 12.5546L27.857 11.0406L30.6583 12.8614L29.6218 14.3753L26.8205 12.5546Z" fill="white"/>
</svg>
