<svg width="21" height="24" viewBox="0 0 21 24" fill="none" xmlns="http://www.w3.org/2000/svg">
<path d="M18.2694 3.60874H14.8862V2.93209C14.8862 1.81279 13.9755 0.902161 12.8562 0.902161H7.44308C6.32378 0.902161 5.41315 1.81279 5.41315 2.93209V3.60874H2.02993C0.910627 3.60874 0 4.51936 0 5.63867C0 6.53761 0.587552 7.30145 1.39862 7.5676L2.60553 22.1369C2.69246 23.1807 3.58103 23.9983 4.62842 23.9983H15.6709C16.7183 23.9983 17.6069 23.1807 17.6939 22.1366L18.9007 7.56755C19.7118 7.30145 20.2993 6.53761 20.2993 5.63867C20.2993 4.51936 19.3887 3.60874 18.2694 3.60874ZM6.76644 2.93209C6.76644 2.55899 7.06998 2.25545 7.44308 2.25545H12.8562C13.2293 2.25545 13.5329 2.55899 13.5329 2.93209V3.60874H6.76644V2.93209ZM16.3452 22.0245C16.3162 22.3724 16.02 22.645 15.6709 22.645H4.62842C4.27932 22.645 3.98313 22.3724 3.95422 22.0249L2.76495 7.6686H17.5344L16.3452 22.0245ZM18.2694 6.31531H2.02993C1.65683 6.31531 1.35329 6.01177 1.35329 5.63867C1.35329 5.26557 1.65683 4.96202 2.02993 4.96202H18.2694C18.6425 4.96202 18.946 5.26557 18.946 5.63867C18.946 6.01177 18.6425 6.31531 18.2694 6.31531Z" fill="white"/>
<path d="M7.44177 20.5731L6.76513 9.65662C6.74199 9.28361 6.41914 8.99992 6.04793 9.02315C5.67492 9.04629 5.39132 9.36738 5.41441 9.74035L6.09106 20.6569C6.1133 21.0157 6.4112 21.2917 6.76576 21.2917C7.15763 21.2917 7.46582 20.9617 7.44177 20.5731Z" fill="white"/>
<path d="M10.1497 9.02189C9.77597 9.02189 9.47301 9.32484 9.47301 9.69853V20.6151C9.47301 20.9887 9.77597 21.2917 10.1497 21.2917C10.5233 21.2917 10.8263 20.9887 10.8263 20.6151V9.69853C10.8263 9.32484 10.5233 9.02189 10.1497 9.02189Z" fill="white"/>
<path d="M14.2513 9.0232C13.8792 9.00005 13.5572 9.28366 13.5341 9.65667L12.8575 20.5732C12.8344 20.9462 13.118 21.2672 13.491 21.2904C13.8642 21.3135 14.1851 21.0297 14.2082 20.6569L14.8849 9.74039C14.908 9.36738 14.6243 9.04629 14.2513 9.0232Z" fill="white"/>
</svg>
