<svg width="23" height="23" viewBox="0 0 23 23" fill="none" xmlns="http://www.w3.org/2000/svg">
<path d="M22.7206 3.52105C22.7206 2.64768 22.3805 1.82652 21.763 1.20893C20.4881 -0.0658473 18.4137 -0.0660344 17.1387 1.20893L13.9889 4.35874L12.5588 2.92866C12.3152 2.6851 11.9204 2.6851 11.6767 2.92866L9.80559 4.79975C9.56204 5.04331 9.56204 5.43823 9.80559 5.68185L11.2357 7.11193L2.21424 16.1334C2.14575 16.2018 2.09418 16.2853 2.06355 16.3772L1.48644 18.1086L0.966839 18.6282C0.0359058 19.5592 0.0358435 21.074 0.966839 22.0051C1.89783 22.936 3.41268 22.936 4.34367 22.0051L4.86327 21.4854L6.59466 20.9083C6.68653 20.8777 6.76999 20.8261 6.83847 20.7577L15.86 11.7362L17.29 13.1662C17.5337 13.4098 17.9285 13.4098 18.1721 13.1662L20.0432 11.2951C20.2868 11.0516 20.2868 10.6567 20.0432 10.413L18.6132 8.98297L21.763 5.83316C22.3805 5.21557 22.7206 4.39447 22.7206 3.52105ZM11.2357 14.5963H5.51541L12.1178 7.99397L14.9779 10.8541L11.2357 14.5963ZM17.7311 11.8431L11.1287 5.24077L12.1177 4.25171L18.72 10.8541L17.7311 11.8431ZM20.8809 4.95113L17.7311 8.10093L14.8709 5.24077L18.0207 2.09097C18.8093 1.30242 20.0924 1.30236 20.8808 2.09097C21.6655 2.84377 21.6654 4.19832 20.8809 4.95113Z" fill="white"/>
</svg>
