<svg width="16" height="10" viewBox="0 0 16 10" fill="none" xmlns="http://www.w3.org/2000/svg">
<path d="M15.428 6.09L14.3148 5.49001C14.2251 5.09099 13.9836 4.19165 13.4697 3.28443C12.5445 1.651 11.1873 0.787622 9.54478 0.787622C7.51082 0.787622 6.40477 1.60111 5.83508 2.28355C5.63917 2.51822 5.49184 2.75399 5.38166 2.96835C5.24793 2.71552 5.15568 2.46968 5.06544 2.2284C4.80196 1.52388 4.52954 0.795385 3.27553 0.522156C2.52525 0.358703 2.02915 0.589886 1.74504 0.812614C0.939492 1.44409 0.883882 2.67957 0.880188 2.81835C0.87635 2.96316 0.945177 3.10032 1.06361 3.18375C1.08733 3.20046 3.44412 4.862 4.16682 5.49249C4.7069 5.96366 4.95912 6.66174 4.84152 7.35982L4.65669 8.45704C4.6115 8.7253 4.68633 8.9983 4.86199 9.20605C5.03765 9.4138 5.29443 9.53293 5.5665 9.53293H6.32746C6.57818 9.53293 6.81266 9.43412 6.98774 9.25471C7.16285 9.07529 7.25592 8.83846 7.24983 8.58785L7.21921 7.32952C7.56565 7.46212 7.91879 7.57556 8.27484 7.66846C8.96758 7.84925 9.88328 7.95949 10.8533 7.97891C10.8579 7.979 10.8703 7.97926 10.8806 7.99328C10.8914 8.00803 10.8878 8.02076 10.8864 8.02555L10.7914 8.35372C10.71 8.63498 10.7642 8.93054 10.9401 9.16461C11.116 9.39868 11.3848 9.53293 11.6776 9.53293H12.3549C12.6058 9.53293 12.849 9.42887 13.0223 9.24741C13.1955 9.06597 13.2882 8.81817 13.2766 8.56762L13.2418 7.81638C13.7297 7.69022 14.1932 7.4517 14.6126 7.23587C14.8845 7.09597 15.1413 6.96383 15.3745 6.87636C15.5335 6.81677 15.6429 6.66973 15.6544 6.50036C15.6659 6.331 15.5774 6.17054 15.428 6.09ZM12.4118 8.60768C12.4125 8.62381 12.4072 8.63789 12.3961 8.64958C12.3849 8.66127 12.3711 8.66718 12.3549 8.66718H11.6776C11.6588 8.66718 11.6435 8.65953 11.6321 8.64447C11.6208 8.62941 11.6177 8.61258 11.623 8.59449L11.718 8.26631C11.7967 7.99455 11.7456 7.70799 11.5778 7.4801C11.4105 7.25267 11.1527 7.119 10.8706 7.11337C9.96657 7.09528 9.12235 6.99494 8.49344 6.83079C7.96799 6.69369 7.4493 6.50758 6.95178 6.27764C6.89395 6.25091 6.83196 6.2377 6.7702 6.2377C6.68704 6.2377 6.60427 6.26165 6.53256 6.30875C6.40757 6.39085 6.33381 6.53162 6.33745 6.6811L6.38434 8.60895C6.38475 8.62485 6.37929 8.63867 6.36818 8.65004C6.35707 8.66144 6.34336 8.66721 6.32746 8.66721H5.5665C5.54898 8.66721 5.53435 8.66043 5.52304 8.64704C5.51173 8.63368 5.50749 8.61815 5.5104 8.60087L5.69524 7.50365C5.86322 6.50645 5.50463 5.51073 4.73599 4.84015C4.1014 4.28651 2.3661 3.04598 1.76622 2.62035C1.81395 2.28395 1.95296 1.74973 2.27912 1.49404C2.48251 1.3346 2.74815 1.29339 3.09119 1.36816C3.88395 1.54088 4.00778 1.87203 4.25452 2.53173C4.42894 2.99816 4.64604 3.57864 5.17331 4.18542L5.17351 4.18527C5.19691 4.21223 5.22367 4.23667 5.25388 4.25753C6.23815 4.93804 7.09059 5.39732 7.93651 5.70293C8.87717 6.04276 9.86375 6.20794 10.9527 6.20794H13.822L14.2597 6.44386C14.2453 6.45125 14.2309 6.45869 14.2165 6.46611C13.7271 6.71798 13.221 6.9784 12.7444 7.0311C12.5174 7.0562 12.349 7.25327 12.3596 7.48137L12.4118 8.60768ZM5.99883 3.71719C6.0749 3.49943 6.22375 3.16894 6.49969 2.83837C6.89845 2.36071 7.43331 2.02636 8.09736 1.83728L7.95432 2.57706L6.76034 4.19367C6.50532 4.04589 6.25255 3.88673 5.99883 3.71719ZM12.7053 3.69159C13.0552 4.30399 13.2669 4.92491 13.3838 5.34217H12.4223L11.7541 3.29733L11.887 2.61034C12.1881 2.90391 12.4612 3.26441 12.7053 3.69159ZM8.47353 3.33133L9.29449 3.83222L9.14711 5.15283C8.57326 5.02557 8.04403 4.83796 7.53602 4.60071L8.47353 3.33133ZM11.0136 3.81843L11.5115 5.34217H10.9527C10.6208 5.34217 10.3052 5.32503 10.0026 5.29253L10.1497 3.97478L11.0136 3.81843ZM11.1159 2.03779L10.9391 2.95207L9.84017 3.15096L8.8428 2.54246L9.01044 1.67545C9.18238 1.6609 9.36034 1.65337 9.54478 1.65337C10.1183 1.65337 10.6427 1.78219 11.1159 2.03779Z" fill="white"/>
<path d="M3.18336 1.90801C2.95694 1.90801 2.74001 2.10711 2.75049 2.34089C2.76099 2.57542 2.94069 2.77376 3.18336 2.77376C3.40978 2.77376 3.62671 2.57467 3.61623 2.34089C3.60573 2.10633 3.42603 1.90801 3.18336 1.90801Z" fill="white"/>
</svg>
